HIERARCHY
ROOT Hips
{
	OFFSET -218.283997 91.576897 -173.547501
	CHANNELS 6 Xposition Yposition Zposition Xrotation Yrotation Zrotation 
	JOINT RightUpLeg
	{
		OFFSET 0.103458 1.857835 10.548497
		CHANNELS 3 Xrotation Yrotation Zrotation
		JOINT RightLeg
		{
			OFFSET 43.500000 -0.000034 -0.000013
			CHANNELS 3 Xrotation Yrotation Zrotation
			JOINT RightFoot
			{
				OFFSET 42.372192 0.000011 0.000010
				CHANNELS 3 Xrotation Yrotation Zrotation
				JOINT RightToe
				{
					OFFSET 17.299994 -0.000002 -0.000009
					CHANNELS 3 Xrotation Yrotation Zrotation
					End Site
					{
						OFFSET 0.000000 0.000000 0.000000
					}
				}
			}
		}
	}
	JOINT LeftUpLeg
	{
		OFFSET 0.103456 1.857832 -10.548508
		CHANNELS 3 Xrotation Yrotation Zrotation
		JOINT LeftLeg
		{
			OFFSET 43.500038 -0.000027 0.000004
			CHANNELS 3 Xrotation Yrotation Zrotation
			JOINT LeftFoot
			{
				OFFSET 42.372261 -0.000011 0.000014
				CHANNELS 3 Xrotation Yrotation Zrotation
				JOINT LeftToe
				{
					OFFSET 17.299995 -0.000004 0.000011
					CHANNELS 3 Xrotation Yrotation Zrotation
					End Site
					{
						OFFSET 0.000000 0.000000 0.000000
					}
				}
			}
		}
	}
	JOINT Spine
	{
		OFFSET 6.901970 -2.603727 -0.000002
		CHANNELS 3 Xrotation Yrotation Zrotation
		JOINT Spine1
		{
			OFFSET 12.588097 -0.000001 0.000008
			CHANNELS 3 Xrotation Yrotation Zrotation
			JOINT Spine2
			{
				OFFSET 12.343203 0.000000 -0.000005
				CHANNELS 3 Xrotation Yrotation Zrotation
				JOINT Neck
				{
					OFFSET 25.832903 -0.000002 -0.000005
					CHANNELS 3 Xrotation Yrotation Zrotation
					JOINT Head
					{
						OFFSET 11.766603 0.000011 -0.000000
						CHANNELS 3 Xrotation Yrotation Zrotation
						End Site
						{
							OFFSET 0.000000 0.000000 0.000000
						}
					}
				}
				JOINT RightShoulder
				{
					OFFSET 19.745899 -1.480377 6.000100
					CHANNELS 3 Xrotation Yrotation Zrotation
					JOINT RightArm
					{
						OFFSET 11.284134 -0.000021 -0.000017
						CHANNELS 3 Xrotation Yrotation Zrotation
						JOINT RightForeArm
						{
							OFFSET 33.000053 0.000002 0.000032
							CHANNELS 3 Xrotation Yrotation Zrotation
							JOINT RightHand
							{
								OFFSET 25.200005 0.000020 0.000008
								CHANNELS 3 Xrotation Yrotation Zrotation
								End Site
								{
									OFFSET 0.000000 0.000000 0.000000
								}
							}
						}
					}
				}
				JOINT LeftShoulder
				{
					OFFSET 19.746092 -1.480377 -6.000073
					CHANNELS 3 Xrotation Yrotation Zrotation
					JOINT LeftArm
					{
						OFFSET 11.284133 -0.000016 -0.000019
						CHANNELS 3 Xrotation Yrotation Zrotation
						JOINT LeftForeArm
						{
							OFFSET 33.000092 0.000022 0.000006
							CHANNELS 3 Xrotation Yrotation Zrotation
							JOINT LeftHand
							{
								OFFSET 25.199783 0.000138 0.000434
								CHANNELS 3 Xrotation Yrotation Zrotation
								End Site
								{
									OFFSET 0.000000 0.000000 0.000000
								}
							}
						}
					}
				}
			}
		}
	}
}
MOTION
Frames: 15
Frame Time: 0.033333
187.039902 70.487091 499.813385 104.086318 -8.191002 20.354399 141.344618 -21.513904 -169.306183 -73.600425 5.166718 2.699443 115.003310 -0.539531 -24.905189 21.454557 0.003104 0.000017 155.711948 12.283099 -175.789999 -101.217202 -1.012566 -2.349935 81.478365 4.427523 11.535559 21.454553 -0.003092 -0.000001 14.942142 -0.274837 -0.128398 19.872331 -0.523451 -0.302103 19.554232 -0.525397 -0.298950 -21.128263 -17.037043 -11.489809 -36.415792 24.477603 -32.232926 139.825611 -73.240549 39.692009 -41.838426 13.833107 -15.235507 -78.409329 -19.401704 3.203564 -9.937797 -10.227267 45.420068 165.537954 76.499895 -13.291996 -7.248393 -56.996720 -49.888357 -30.857671 12.847534 -1.107839 5.645232 10.240796 13.063886 
181.727905 70.640137 502.488708 104.658422 -10.386525 21.868302 145.430874 -23.373196 -169.870998 -70.324891 4.664872 3.401525 118.006804 -0.382202 -24.231256 21.454560 0.003109 0.000018 143.338965 12.363103 -169.167817 -108.475910 -1.438055 -2.672833 85.721688 4.158036 11.282521 21.454548 -0.003092 0.000000 14.801722 0.268331 -0.286277 19.589532 0.581304 -0.522944 19.271430 0.578004 -0.526461 -18.907879 -16.434449 -15.747158 -37.200694 24.957520 -36.469095 135.630277 -72.969766 43.974168 -47.713454 11.726439 -21.995323 -84.757716 -15.499837 3.205481 -14.112119 -12.555459 47.160865 169.720953 77.124208 -9.004028 -2.286831 -55.221390 -53.303216 -34.685449 13.333530 -1.220065 5.147149 12.152254 11.913125 
175.727203 71.099617 505.063904 105.384218 -11.260044 22.011873 152.115321 -24.483600 -172.786642 -64.953829 4.775709 3.280120 118.191998 -0.276889 -24.239341 21.454558 0.003109 0.000018 130.404075 13.274796 -164.484069 -109.848109 -0.789995 -3.123059 88.514669 4.217439 11.627039 21.454551 -0.003092 -0.000000 14.681698 0.605036 -0.589673 19.345698 1.300194 -1.069820 19.027580 1.293578 -1.077668 -16.343432 -15.711891 -18.673377 -37.781355 25.102347 -39.076759 130.066268 -73.499618 49.572676 -51.480782 11.290669 -28.227843 -90.097756 -11.564812 3.163888 -17.030991 -14.286527 49.827190 172.020008 77.764217 -6.641003 2.042897 -52.512991 -55.365469 -39.192100 13.364997 -1.330113 4.823232 13.700114 11.988603 
168.587601 71.817192 507.668396 106.145798 -11.346980 21.103601 161.824680 -24.933503 -176.980010 -56.543393 4.580046 2.660005 115.396797 -0.463097 -24.059311 21.454557 0.003109 0.000017 118.980843 13.302308 -161.473376 -104.816506 0.374381 -3.305112 90.015234 4.100429 11.354991 21.454555 -0.003092 -0.000000 14.533664 0.876755 -0.960603 19.042402 1.899705 -1.763828 18.724267 1.888884 -1.775282 -15.517664 -15.162832 -20.349143 -35.736178 24.494783 -39.406633 127.004909 -73.953983 52.631945 -52.440611 11.451914 -31.348745 -93.157210 -8.653394 3.094794 -17.694372 -16.946078 48.047953 170.000991 79.509822 -8.636955 4.831389 -51.045859 -55.685245 -42.964065 12.826757 -1.395242 2.469827 15.404004 7.101768 
160.090195 72.772690 510.560089 107.547093 -10.432988 19.190699 173.705371 -23.597703 178.271189 -44.725728 3.525974 1.642901 106.890814 -1.504337 -23.058691 21.454560 0.003109 0.000017 110.551338 12.449904 -160.118964 -94.615619 1.998931 -3.250971 89.588921 3.972245 10.883091 21.454548 -0.003092 0.000002 14.155227 1.028553 -1.390911 18.275300 2.264003 -2.602077 17.957293 2.248118 -2.615709 -15.174052 -16.117769 -21.261658 -32.497924 24.682712 -39.602803 127.678625 -74.929013 51.869543 -51.570404 13.853718 -31.614463 -93.325902 -8.076386 3.061564 -16.093469 -16.334990 45.240841 160.515005 81.326646 -18.180075 5.984616 -50.691823 -56.379004 -44.786322 12.540026 -1.427943 -0.296850 16.250207 2.388909 
150.363800 73.596832 513.790222 109.332388 -9.237052 17.092487 -175.235962 -21.239394 174.676105 -32.575935 1.490059 0.480795 90.407696 -3.558093 -20.445130 21.454558 0.003112 0.000017 106.028360 10.370803 -159.648732 -81.406450 4.123883 -2.801721 90.876213 3.196713 9.183448 21.454551 -0.003092 -0.000002 13.502437 1.212420 -1.694531 16.959322 2.660307 -3.193468 16.641401 2.640847 -3.209475 -13.404529 -16.331431 -22.253211 -31.540994 24.720864 -40.145537 135.329270 -74.790633 44.138591 -49.307703 16.453639 -26.741765 -90.517601 -10.307390 3.093231 -11.719111 -14.542999 43.458796 152.949929 81.755329 -25.806077 4.113645 -50.791933 -56.929070 -43.599833 12.671908 -1.402833 -1.047772 15.880451 1.260624 
139.597900 74.027740 517.342590 110.525213 -6.438537 15.694233 -166.269686 -16.907305 171.851740 -23.743414 1.361666 -0.085333 70.954204 -7.956161 -23.906588 21.454558 0.003107 0.000019 105.153358 8.440311 -161.333658 -68.893284 5.504770 -3.591971 92.805960 3.617491 9.764956 21.454553 -0.003093 0.000002 13.109944 1.255938 -2.078183 16.163395 2.790138 -3.961194 15.845716 2.766047 -3.977958 -13.634543 -17.027201 -21.983681 -30.372649 24.460962 -39.598387 137.970914 -74.447751 41.486019 -45.490730 20.133714 -21.133500 -85.967636 -13.988642 3.151144 -8.865329 -12.666751 42.775815 146.821036 81.454951 -32.015057 -0.727845 -52.112608 -53.573849 -40.496810 13.280132 -1.358314 -0.468116 13.820922 4.912599 
129.628006 75.150124 520.456482 110.370311 -4.465160 15.270230 -165.908287 -13.612000 173.182493 -31.620006 3.438554 0.346462 62.512241 -11.063504 -25.537024 21.454557 0.003109 0.000017 108.067280 5.876905 -161.917981 -61.915597 6.400115 0.569034 87.923454 -1.698453 -6.456059 21.454553 -0.003092 0.000002 13.369359 1.638696 -2.166672 16.670094 3.572663 -4.075941 16.352228 3.547871 -4.097427 -17.560314 -16.787632 -19.187953 -29.930056 20.697281 -35.192970 139.484320 -73.585528 40.013417 -42.106238 23.168948 -16.087795 -80.025187 -17.572383 3.142727 -6.765520 -12.351135 37.080093 151.135981 80.564950 -27.709968 -10.049899 -51.649126 -43.452707 -37.982600 12.982245 -1.274818 1.870906 13.501264 10.633289 
120.219200 74.960693 523.061707 108.311405 -2.946417 15.172201 -170.603181 -12.281495 177.400954 -54.322192 2.286327 2.692300 67.214225 -9.366276 -19.593615 21.454550 0.003109 0.000018 113.259187 3.472900 -161.238582 -68.756673 2.088440 3.807643 97.470925 -3.821392 -13.816440 21.454553 -0.003093 -0.000000 14.042356 2.194289 -1.820635 18.019753 4.645346 -3.279125 17.701099 4.625336 -3.307149 -20.759641 -13.982540 -13.395519 -31.246415 13.138502 -25.278650 139.553988 -72.535455 40.020086 -38.534469 26.954469 -10.265193 -74.572272 -20.442862 3.109102 -8.114231 -14.062027 33.267546 159.092058 78.113315 -19.779055 -17.840087 -47.848252 -36.530655 -36.317847 14.152309 -1.310847 4.984735 16.145522 16.114214 
110.461998 75.015503 525.224121 107.749902 -3.585291 12.426821 -179.484189 -12.458099 175.614368 -78.535687 2.577449 -0.779501 68.742466 -6.289382 -18.853889 21.454568 0.003108 0.000014 118.504848 -0.427995 -164.189893 -73.369052 2.451230 4.815822 104.146110 -3.531400 -10.752220 21.454557 -0.003091 0.000000 14.155193 2.825365 -0.867487 18.288279 5.752139 -1.277969 17.968522 5.744184 -1.312805 -19.488661 -12.308661 -6.860097 -34.290828 6.197504 -14.695649 144.912531 -71.315098 34.647887 -32.472085 33.636738 -4.664743 -73.221397 -21.645884 3.137505 -9.333956 -13.829119 38.647809 160.515019 76.711193 -18.401001 -23.473484 -43.940079 -30.471007 -36.020164 16.208105 -1.437061 5.979527 18.732685 14.265467 
100.662399 75.464973 527.452087 109.658093 -4.406474 8.952840 166.663391 -12.540407 174.179427 -99.440553 3.482407 -2.808351 74.168526 -2.510876 -14.327387 21.454568 0.003108 0.000016 124.307749 -2.306106 -163.135243 -74.327806 1.664082 3.220097 110.463604 -1.882633 -9.626891 21.454553 -0.003092 -0.000000 13.801208 3.106560 -0.042349 17.625892 6.183081 0.390877 17.305772 6.185191 0.353371 -20.165995 -9.201137 -1.832440 -34.668879 1.042539 -5.715434 154.493825 -71.420146 24.847163 -22.142012 42.118191 -0.506289 -76.916222 -19.080594 3.113646 -12.254331 -12.461375 43.952616 158.868014 78.026906 -20.011976 -26.396948 -43.849832 -18.914804 -44.985115 18.909884 -1.853914 4.604293 23.501868 7.164702 
90.460312 76.253098 529.453613 111.822805 -3.968696 6.218337 149.962978 -11.505493 174.549159 -113.530796 3.731876 -3.543689 78.579687 -0.648528 -11.285549 21.454568 0.003111 0.000015 131.332681 -2.572905 -163.451495 -73.087477 1.445043 1.576982 114.019401 -0.565792 -8.624902 21.454551 -0.003092 -0.000000 13.391797 2.929616 0.697673 16.837526 5.726259 1.817569 16.517849 5.736993 1.782844 -20.227190 -9.071890 -1.006319 -35.434789 0.122736 -4.330308 163.019800 -72.562816 16.055741 -7.683309 48.659292 8.780140 -81.365455 -15.313462 3.039829 -13.632852 -13.963730 41.495882 158.998048 79.754924 -19.792983 -23.944323 -46.479430 -4.851432 -65.338723 15.948768 -2.368930 -3.587683 28.942933 -4.049000 
79.500343 77.030983 531.176086 112.697302 -2.508520 4.385815 133.440791 -9.095001 174.663032 -118.544804 3.813599 -5.643413 83.281699 1.843483 -8.782632 21.454546 0.003109 0.000018 140.945325 -2.393706 -166.018963 -69.134157 1.693604 0.818086 115.503089 -0.074857 -6.966100 21.454553 -0.003092 -0.000000 13.123268 2.459273 1.237503 16.305784 4.719306 2.812301 15.986920 4.736061 2.783705 -19.341199 -10.870950 -2.199003 -35.769069 0.823954 -6.511926 169.874086 -74.500343 8.960431 10.059653 51.874710 21.828137 -84.943948 -10.676064 2.869605 -14.960793 -16.736598 39.615910 162.191994 81.056423 -16.495037 -19.737862 -48.562635 5.437787 -86.081707 7.834664 -2.679996 -14.293696 28.067699 -18.123282 
67.798393 77.830727 532.769226 112.452911 0.178799 2.605915 119.239257 -6.263397 173.627534 -114.161920 3.601935 -7.229123 87.627017 3.501213 -7.581315 21.454562 0.003111 0.000016 152.545814 -1.238297 -169.974325 -62.424077 1.503312 0.346212 113.408789 0.020535 -5.180710 21.454557 -0.003091 0.000000 13.023053 1.461218 1.523950 16.075999 2.696216 3.237240 15.758058 2.715571 3.220902 -18.823332 -11.123740 -2.840596 -34.872975 2.104863 -7.902093 174.802600 -77.477568 3.836892 26.055934 51.739950 36.297773 -85.626072 -8.317646 2.734057 -14.877964 -17.805603 37.932583 169.333039 82.442460 -9.213969 -17.924575 -50.874094 12.894449 -101.501297 1.049929 -2.889673 -20.136139 22.772623 -25.791342 
55.028919 78.604370 534.080688 111.480681 2.839567 1.659885 109.664889 -4.295303 173.328918 -101.655802 2.638340 -5.852621 89.369665 3.077686 -5.299598 21.454565 0.003106 0.000017 166.047117 0.781692 -173.304234 -52.402963 1.628463 0.128343 105.872706 -0.176753 -4.198261 21.454545 -0.003091 -0.000000 12.937127 0.385572 1.653515 15.869501 0.540445 3.344243 15.551967 0.560485 3.340913 -18.195902 -11.755270 -3.117597 -33.391121 4.340227 -9.497512 165.194327 -79.260520 13.551212 37.227779 49.877767 47.809784 -83.569543 -9.017918 2.692147 -10.284303 -15.387361 38.063237 174.550060 83.946085 -3.896953 -15.917898 -53.680731 14.228977 -110.635001 -0.646096 -3.171069 -24.791961 22.151519 -31.132204 
